<svg xmlns="http://www.w3.org/2000/svg" width="24" height="24" viewBox="0 0 24 24" class="socialIcon-38NB2e"><path fill="currentColor" d="M17.836 6.009A4.794 4.794 0 0 1 15.658 2h-3.439l-.005 13.78a2.892 2.892 0 0 1-2.885 2.782 2.893 2.893 0 0 1-2.89-2.89 2.894 2.894 0 0 1 2.89-2.89c.298 0 .583.048.853.133v-3.51a6.308 6.308 0 0 0-.853-.062A6.336 6.336 0 0 0 3 15.672a6.324 6.324 0 0 0 2.702 5.181A6.29 6.29 0 0 0 9.329 22a6.336 6.336 0 0 0 6.329-6.329V8.683c1.348.968 3 1.539 4.784 1.539V6.783c-.96 0-1.855-.285-2.605-.775v.001Z"/></svg>